<?xml version="1.0" encoding="UTF-8"?>
<svg id="Camada_2" data-name="Camada 2" xmlns="http://www.w3.org/2000/svg" xmlns:xlink="http://www.w3.org/1999/xlink" viewBox="0 0 4887.13 1475.31">
  <defs>
    <style>
      .cls-1, .cls-2, .cls-3 {
        fill-rule: evenodd;
      }

      .cls-1, .cls-4 {
        fill: #fff;
      }

      .cls-2 {
        fill: #d11b1a;
      }

      .cls-5 {
        clip-rule: evenodd;
        fill: none;
      }

      .cls-3 {
        fill: #2f6f30;
      }

      .cls-6 {
        clip-path: url(#clippath);
      }
    </style>
    <clipPath id="clippath">
      <path class="cls-5" d="M1690.59,9.11l-74.45,151.68c470.58,167.47,1368.89-201.61,1804.43-58.02-442.71-276.08-1245.07,115.22-1729.99-93.66"/>
    </clipPath>
  </defs>
  <g id="Camada_1-2" data-name="Camada 1">
    <path class="cls-4" d="M4753.15,866.62c0-6.74-2.83-10.07-8.59-10.07-20.47,0-45.49,14.01-75,42.08-29.47,28.07-44.63,53.3-45.41,75.74,15.54-3.33,40.11-17.96,73.73-43.77,36.87-28.07,55.28-49.4,55.28-63.99M4887.13,963.44c0,3.95-16.81,13.19-50.39,27.78-82.77,35.92-142.16,53.88-178.24,53.88-53.26,0-79.85-21.33-79.85-63.99,0-31.4,22.32-63,66.95-94.69,44.67-31.73,87.08-47.59,127.24-47.59,12.29,0,18.41,3.95,18.41,11.79,0,18.95-24.12,45.74-72.5,80.39-38.51,27.37-70.07,46.19-94.61,56.14,2.38,24.58,19.6,36.91,51.58,36.91,30.33,0,81.13-13.89,152.43-41.55,5.75-2.22,21.7-8.84,47.92-19.89,2.47-1.69,4.93-2.55,7.4-2.55s3.66,1.15,3.66,3.37ZM4600.72,963.44c-4.89,9.53-34.85,23.88-89.76,42.95-54.91,19.07-95.47,28.6-121.69,28.6-13.89,0-20.88-3.37-20.88-10.07,0-9,13.52-26.96,40.56-53.88,27.08-26.96,40.56-44.63,40.56-53.06,0-9.54-6.53-14.3-19.69-14.3-19.44,0-58.56,18.25-117.37,54.7-39.95,24.7-75.17,48.58-105.29,71.55-11.47,8.42-20.26,12.66-26.84,12.66-10.64,0-15.95-3.95-15.95-11.79,0-2.26,2.84-7.85,8.59-16.85,19.69-18.49,38.92-37.03,57.78-55.56,28.69-28.07,43.03-47.96,43.03-59.76,0-5.05-2.47-7.6-7.4-7.6-2.47,0-7.36,1.15-14.75,3.37-41.76,21.33-101.22,51.66-178.2,90.95h-8.63c-5.71,0-8.59-.57-8.59-1.68,0-1.69,4.48-4.48,13.48-8.43,57.37-30.86,120.91-64.28,190.53-100.2,9.82-5.59,22.56-8.42,38.14-8.42,16.4,0,24.54,5.05,24.54,15.16,0,11.8-11.63,29.59-35.02,53.47-23.34,23.83-34.97,36.91-34.97,39.12,0,.58.78.86,2.47.86-.86,0,26.55-15.86,82.32-47.55,55.73-31.73,93.41-47.59,113.1-47.59,30.29,0,45.45,7.03,45.45,21.04,0,12.37-13.11,32.55-39.33,60.62-26.22,28.07-39.33,44.06-39.33,48,0,4.48,4.11,6.74,12.25,6.74,15.62,0,45.5-8.14,89.76-24.41,30.33-11.79,53.67-21.62,70.03-29.47,2.47-1.69,4.93-2.55,7.4-2.55s3.7,1.15,3.7,3.37ZM4106.61,963.44c0,3.37-8.14,9-24.54,16.85-63.95,31.44-114.37,47.14-151.2,47.14s-55.32-10.64-55.32-31.97c0-22.48,13.89-48.86,41.8-79.15,18-19.64,35.67-35.34,52.81-47.14,5.75-5.05,14.75-7.6,27.08-7.6,6.53,1.15,9.82,2.55,9.82,4.23,0,.57-14.18,16.85-42.41,48.82-28.27,31.98-42.37,55.56-42.37,70.73,0,17.39,11.05,26.1,32.96,26.1,29.26,0,75.99-16.27,140.35-48.82,2.42-1.69,4.89-2.55,7.36-2.55s3.66,1.15,3.66,3.37ZM4088.2,766.46c0,5.05-4.32,10.23-12.91,15.58-8.59,5.3-16.19,7.97-22.73,7.97-13.15,0-20.1-5.06-20.88-15.12,0-6.74,4.48-12.37,13.48-16.85,6.53-3.95,13.52-5.92,20.88-5.92,14.75,0,22.15,4.77,22.15,14.34ZM3569.47,623.32c0-56.1-27.41-110.26-82.32-162.46-63.95-59.51-142.61-89.26-236.06-89.26-43.36,0-80.88,9.99-112.44,29.88-31.56,19.93-47.34,43.93-47.34,72,0,56.14,32.43,107.47,97.15,154.07,74.51,52.73,169.2,79.11,283.94,79.11,31.15,0,59.8-2.22,86.02-6.74,7.4-24.7,11.06-50.22,11.06-76.6ZM4592.17,468.84c0,4.23-3.33,6.33-9.86,6.33-75.41,0-193.4,44.06-354.01,132.04-196.69,107.06-396.63,251.84-599.86,434.52-13.07,11.8-23.34,17.67-30.7,17.67-.78,0-3.08-.82-6.74-2.51-3.7-1.69-5.59-4.19-5.59-7.56,0-4.52,2.92-10.4,8.67-17.71,14.75-18.49,111-149.55,288.83-393.14,4.11-5.63,8.18-11.22,12.33-16.85-63.99,48.82-128.72,95.14-194.27,138.91-157.32,104.96-306.46,189.7-447.43,254.27-3.25,1.11-18.82,8.96-46.69,23.55-15.58,7.85-25.81,11.8-30.7,11.8-2.47,0-4.11-1.69-4.93-5.06,0-4.48,7.81-10.52,23.34-17.79,13.15-6.74,26.63-13.48,40.56-20.34,86.88-47.88,152.84-91.07,197.88-129.37,63.13-54.17,104.1-111.13,122.96-170.92-27.08,6.17-55.32,9.29-84.87,9.29-112.28,0-207.71-23.18-286.37-69.45-78.7-46.32-117.99-100.61-117.99-162.91,0-39.29,17.18-69.91,51.78-91.77,31.97-19.65,73.81-29.47,125.59-29.47,119.88,0,212.64,29.47,278.39,88.4,55.15,49.93,82.56,110.55,82.56,181.86,0,21.29-3.29,40.93-9.82,58.89,31.15-8.96,78.66-31.97,142.57-69,2.47-1.69,4.56-2.55,6.17-2.55,4.11,0,6.12,2.26,6.12,6.74,0,1.11-.41,2.26-1.19,3.37-49.19,32.55-101.22,55.85-156.13,69.86-22.93,70.73-73.73,136.11-152.39,196.16-.86,1.15-7.4,6.04-19.68,14.75-12.33,8.71-18.41,13.32-18.41,13.89,0,0,13.11-6.74,39.33-20.22,59.84-30.86,147.5-84.46,263.02-160.77,145.07-96.54,242.56-172.61,292.57-228.17,18-20.22,29.88-30.29,35.63-30.29,4.93,1.11,7.36,2.79,7.36,5.05,0,6.7-8.22,18.78-24.58,36.17-13.11,13.48-26.22,26.67-39.33,39.58-94.24,102.7-207.71,253.98-340.49,453.8,108.17-111.13,247.49-223.41,417.92-336.75,221.23-147.62,396.63-221.43,526.09-221.43,8.18.57,12.33,2.96,12.33,7.15ZM3002.82,963.44c0,5.05-16.81,14.3-50.34,27.78-102.5,40.97-182.35,61.48-239.72,61.48-42.58,0-63.91-11.8-63.91-35.38,0-10.65,6.37-19.93,19.03-27.78,12.74-7.85,24-11.8,33.82-11.8,7.36,0,11.06,1.97,11.06,5.92s-4.32,9.41-12.91,16.4c-8.63,7.03-12.9,12.78-12.9,17.26,0,9,6.53,14.88,19.69,17.67,25.4-5.59,53.84-22.27,85.4-50.06,31.56-27.78,47.34-50.38,47.34-67.81,0-14.59-8.59-21.86-25.81-21.86s-36.91,5.34-61.52,15.99c-10.6,5.05-41.75,20.75-93.33,47.14-26.22,13.48-43.89,22.44-52.89,26.96h-8.63c-5.71,0-8.59-.57-8.59-1.68,0-1.69,4.69-4.48,14.18-8.43,9.41-3.95,24.78-11.51,46.07-22.73,31.93-16.27,63.49-32.84,94.65-49.69,40.11-17.96,72.95-26.92,98.35-26.92,31.11,0,46.65,8.67,46.65,26.1,0,48.25-52.44,93.17-157.32,134.68,57.37-1.69,128.22-19.65,212.68-53.88,9-3.37,24.99-10.11,47.92-20.18,2.47-1.69,4.93-2.55,7.4-2.55s3.66,1.15,3.66,3.37ZM2614.41,573.68c0,50.51-43.85,89.22-131.51,116.18-3.25,0-4.93-.58-4.93-1.69,0-.58.41-1.15,1.27-1.69,38.51-17.43,60.58-28.07,66.37-32.01,22.11-14.01,33.17-30.29,33.17-48.82-.86-6.17-4.52-12.49-11.06-18.95-6.58-6.45-9.82-11.34-9.82-14.71,2.47-12.91,11.47-19.4,27-19.4,16.44,0,26.26,7.03,29.51,21.08ZM2033,1091.42c-233.56,114.5-350.31,229.28-350.31,344.31,0,14.59,6.95,21.91,20.88,21.91,34.27,0,84.87-40.4,151.81-121.24,43.28-52.77,102.41-134.43,177.62-244.98ZM2312.01,963.44c-3.25,7.31-31.11,21.62-83.55,42.95-60.66,24.7-108.58,44.88-143.8,60.62-110.67,152.1-179.47,243.3-206.55,273.58-76.98,89.8-141.7,134.72-194.14,134.72-24.62,0-36.91-10.93-36.91-32.84,0-122.35,133.57-246.95,400.7-373.78l76.2-109.44c0-2.26-1.19-3.37-3.66-3.37,0,0-22.56,11.79-67.6,35.34-45.08,23.59-77.84,35.38-98.35,35.38s-29.47-6.74-29.47-20.1c0-7.85,12.45-27.9,37.48-60.33,24.99-32.26,37.44-51.33,37.44-56.84,0-6.16-7.73-9.25-23.1-9.25-3.53,0-5.14-3.66-5.14-10.81,7.56-1.81,15.33-2.67,23.76-2.67,29.26,0,43.85,5.63,43.85,16.85,0,12.37-11.1,32.55-33.16,60.62-22.15,28.07-33.21,45.74-33.21,53.06,0,4.48,2.84,6.7,8.59,6.7,19.69,0,51.25-11.76,94.6-35.34,49.23-26.92,86.06-55.85,110.68-86.72,12.29-8.42,21.29-12.62,27.04-12.62,10.64,0,15.99,3.66,15.99,10.93,0,3.95-2.92,9-8.59,15.16-31.97,34.24-72.13,84.17-120.5,149.84,43.44-18.49,83.59-34.52,120.5-47.96,40.93-16.32,67.56-27.78,79.85-34.52,2.47-1.69,4.93-2.55,7.4-2.55s3.66,1.15,3.66,3.37ZM2165.79,493.7c0-12.95-4.11-19.4-12.33-19.4-41.75,0-98.35,30.33-169.61,90.78-62.3,53.75-119.64,116.35-172.08,187.73-52.44,71.43-78.66,123.37-78.66,155.92,0,2.22.82,3.37,2.42,3.37,12.33,0,53.71-24.17,124.16-72.29,80.34-54.87,147.13-109.73,200.35-164.72,70.52-71.71,105.74-132.17,105.74-181.4ZM2201.42,480.22c0,56.8-38.3,123.74-114.91,200.64-57.95,58.52-130.94,116.47-218.76,173.72-75.21,49.52-119.88,74.22-134.64,74.22,2.42,52.89,26.43,79.28,71.67,79.28,30.13,0,71.72-12.62,125.43-37.77,3.9-2.22,9.58-4.77,16.97-7.68,2.26-1.69,4.73-2.55,7.19-2.55s3.66,1.15,3.66,3.37c0,2.79-6.12,7.31-18.41,13.48-68.84,34.81-121.28,52.19-157.32,52.19-27.08,0-49.4-7.73-67.03-23.14-17.59-15.45-26.43-34.11-26.43-56.02,0-49.36,31.15-115.32,93.45-197.84,58.11-76.89,124.89-145.07,200.35-204.54,80.26-62.88,143.39-94.32,189.29-94.32,19.6,0,29.47,9,29.47,26.96ZM1698.72,963.44c0,6.74-25.4,19.64-76.2,38.71-53.3,20.22-91.4,30.33-114.33,30.33-42.58,0-63.9-15.45-63.9-46.32,0-8.42,6.58-17.96,19.69-28.6,0-.58-.41-.86-1.23-.86.82,0-21.33,11.67-66.37,34.93-45.09,23.3-77.47,34.97-97.07,34.97s-28.31-5.34-28.31-16.03c0-25.81,31.52-55.85,94.65-90.08,59.84-33.08,106.52-49.65,140.14-49.65,4.89.53,10.44,2.22,16.6,5.18,6.12,2.79,9.16,5.06,9.16,6.74,0,.41-.41.99-1.19,1.56-45.91,0-104.51,24.53-175.81,73.77-22.89,15.74-34.36,29.06-34.36,39.87,0,3.95,2.88,5.88,8.59,5.88,18.04,0,52.44-14.3,103.24-42.91,40.97-23.59,70.07-42.37,87.25-56.43,8.22-6.74,13.93-10.11,17.22-10.11,8.22,0,12.29,3.95,12.29,11.67,0,2.79-5.34,9.25-15.94,19.19-35.26,33-52.85,53.92-52.85,62.75,0,15.58,12.66,23.43,38.1,23.43,41.76,0,98.35-16.27,169.61-48.82,2.47-1.69,4.93-2.55,7.4-2.55s3.66,1.15,3.66,3.37ZM1189.85,891.03c-15.37-1.11-32.01-2.79-49.81-5.01-2.47,24.82-8.42,53.14-18.25,85.28l-7.15,23.71,15.21-21.33,60-82.65ZM1127.14,847.26c0-38.71-11.88-76.32-35.63-112.81-29.47-44.34-68.02-66.5-115.52-66.5-40.97,0-61.48,15.41-61.48,46.32,0,38.14,23.38,72.09,70.07,101.84,37.69,24.7,84.78,43.23,141.37,55.56,0-3.37.41-7.56,1.19-12.62v-11.79ZM1256.18,801.81l-20.88,15.99c-27.82,21.33-54.9,40.98-81.13,58.93,18,2.79,32.34,4.23,43.03,4.23l58.98-79.15ZM1392.62,669.64c0,2.79-1.6,6.16-4.89,10.11-37.69,44.34-89.3,111.42-154.89,201.21,49.15,0,85.24-1.68,108.21-5.05.78,1.69,1.19,3.9,1.19,6.74s-3.25,4.77-9.82,5.88c-16.4,2.26-52.03,3.37-106.93,3.37-44.22,60.62-84,111.7-119.22,153.21-7.4,8.43-13.93,12.62-19.69,12.62-9,0-13.52-3.62-13.52-10.93,0-3.9,2.47-9.82,7.4-17.67,18.82-30.29,32.75-74.39,41.75-132.17-67.98,43.19-129.41,76.03-184.32,98.51-4.15-1.15-6.16-2.55-6.16-4.23,0-3.91,6.16-8.14,18.41-12.62,51.66-22.44,108.58-54.17,170.88-95.14-65.59-10.64-118.81-27.78-159.79-51.37-53.3-30.29-79.93-67.89-79.93-112.81,0-16.81,10.11-32.55,30.12-47.14,20.1-14.59,42.86-21.86,68.22-21.86,45.91,0,84,17.1,114.29,51.33,32.01,36.49,47.96,85.03,47.96,145.65v22.73c62.1-42.66,116.59-85.03,163.86-127.11,19.68-22.44,43.27-49.69,70.93-81.66,2.47,0,5.71,1.11,9.86,3.37,4.07,2.26,6.08,3.95,6.08,5.05ZM1015.27,570.31c0-125.72-52.85-188.6-158.55-188.6-55.69,0-107.35,25.97-154.9,77.88-47.51,51.9-71.26,107.63-71.26,167.1,0,142.57,64.73,236.02,194.22,280.36,126.95-95.43,190.49-207.66,190.49-336.75ZM1070.63,944.5c0,4.23-7.4,6.33-22.15,6.33-85.19,0-158.18-9-218.76-26.96-147.58,107.76-326.97,161.64-538.42,161.64-55.69,0-109.4-4.48-160.98-13.44C43.44,1056.9,0,1032.49,0,998.83c0-9,7.77-17.43,23.34-25.27,20.51-10.11,49.19-15.16,86.02-15.16,68.06,0,142.98,17.67,224.97,53.06,3.29,3.37,4.89,5.59,4.89,6.74,0,2.79-2.01,4.19-6.08,4.19s-8.22-1.11-12.33-3.37c-65.59-33.12-139.73-49.65-222.46-49.65-13.93,0-27.08,2.51-39.33,7.56-12.29,5.05-18.45,11.8-18.45,20.22,0,51.62,83.55,77.43,250.73,77.43,91.81,0,183.54-13.73,275.35-41.26,91.73-27.49,172.86-65.92,243.38-115.32-136.9-46.6-205.28-139.77-205.28-279.5,0-69.58,25.4-130.77,76.19-183.54,53.3-54.99,118.81-82.48,196.69-82.48,62.22,0,108.99,18.49,140.1,55.4,26.22,31.44,39.33,72.99,39.33,124.48,0,58.77-18.45,119.96-55.28,183.25-37.73,65.51-90.62,124.44-158.59,176.51,56.51,16.81,126.62,25.23,210.21,25.23,11.43,0,17.22,2.38,17.22,7.15Z"/>
    <path class="cls-1" d="M1712.89,34.59l-74.45,151.68c470.58,167.47,1317.38-217.24,1817.42-63.3-442.71-276.08-1258.06,120.5-1742.97-88.38"/>
    <path class="cls-1" d="M1690.59,9.11l-74.45,151.68c470.58,167.47,1368.89-201.61,1804.43-58.02-442.71-276.08-1245.07,115.22-1729.99-93.66"/>
    <g class="cls-6">
      <polygon class="cls-3" points="1643.6 -78.27 2271.04 -78.27 2219.1 243.41 1591.66 243.41 1643.6 -78.27"/>
      <polygon class="cls-2" points="2763.07 -140.03 3390.51 -140.03 3489.57 181.65 2862.13 181.65 2763.07 -140.03"/>
    </g>
  </g>
</svg>